<?xml version="1.0" standalone="no"?>
<!DOCTYPE svg PUBLIC "-//W3C//DTD SVG 20010904//EN"
 "http://www.w3.org/TR/2001/REC-SVG-20010904/DTD/svg10.dtd">
<svg version="1.0" xmlns="http://www.w3.org/2000/svg"
 width="512.000000pt" height="512.000000pt" viewBox="0 0 512.000000 512.000000"
 preserveAspectRatio="xMidYMid meet">
<metadata>
Created by potrace 1.16, written by Peter Selinger 2001-2019
</metadata>
<g transform="translate(0.000000,512.000000) scale(0.100000,-0.100000)"
fill="#000000" stroke="none">
<path d="M1672 3815 c-18 -8 -37 -26 -42 -40 -6 -17 -10 -292 -10 -741 l0
-714 1750 0 1750 0 0 728 0 729 -26 24 -26 24 -1681 2 c-1435 2 -1687 0 -1715
-12z"/>
<path d="M605 3231 c-42 -11 -86 -35 -112 -63 -29 -31 -348 -637 -376 -713
-20 -55 -22 -83 -25 -327 l-3 -268 -34 0 c-43 0 -55 -20 -55 -95 0 -94 2 -95
140 -95 l120 0 0 -40 0 -40 56 0 56 0 -6 34 c-4 19 -2 65 4 102 27 169 144
305 309 359 85 28 217 18 304 -22 93 -44 169 -118 214 -211 33 -66 38 -85 41
-168 l4 -94 54 0 54 0 0 40 0 40 1190 0 1190 0 0 -40 0 -40 54 0 54 0 0 78 c1
123 43 222 133 310 93 91 188 126 324 120 82 -3 101 -8 167 -41 93 -45 167
-121 211 -214 26 -57 32 -83 35 -160 l4 -93 54 0 54 0 0 40 0 40 125 0 c144 0
145 1 145 95 0 75 -12 95 -55 95 l-35 0 0 190 0 190 -1735 0 -1735 0 0 454 0
453 -23 34 c-13 19 -38 39 -57 46 -39 13 -792 17 -845 4z m575 -401 l0 -280
-436 0 c-262 0 -434 4 -432 9 2 5 64 124 138 264 90 171 143 260 160 271 21
13 67 16 298 16 l272 0 0 -280z m220 0 l0 -280 -75 0 -75 0 0 280 0 280 75 0
75 0 0 -280z"/>
<path d="M737 2030 c-118 -20 -234 -115 -278 -228 -31 -79 -31 -195 0 -274 29
-74 106 -159 175 -193 185 -91 399 -23 497 157 33 61 34 67 34 173 0 101 -2
114 -27 162 -82 154 -233 231 -401 203z m124 -171 c121 -41 178 -176 121 -286
-32 -62 -112 -113 -176 -113 -74 0 -155 55 -187 125 -70 153 84 327 242 274z"/>
<path d="M741 1714 c-25 -32 -27 -62 -5 -92 22 -32 57 -43 94 -31 35 13 50 35
50 78 0 69 -96 100 -139 45z"/>
<path d="M4207 2030 c-76 -13 -150 -55 -206 -115 -67 -74 -94 -146 -94 -250 0
-104 27 -176 94 -250 209 -227 590 -114 637 190 41 256 -175 468 -431 425z
m127 -172 c96 -29 162 -143 137 -237 -41 -157 -224 -210 -337 -97 -90 89 -81
224 19 301 59 44 111 54 181 33z"/>
<path d="M4217 1722 c-49 -54 -15 -136 56 -136 21 0 45 8 57 19 27 25 27 88 0
115 -26 26 -90 27 -113 2z"/>
</g>
</svg>
