<?xml version="1.0" standalone="no"?>
<!DOCTYPE svg PUBLIC "-//W3C//DTD SVG 20010904//EN"
 "http://www.w3.org/TR/2001/REC-SVG-20010904/DTD/svg10.dtd">
<svg version="1.0" xmlns="http://www.w3.org/2000/svg"
 width="512.000000pt" height="512.000000pt" viewBox="0 0 512.000000 512.000000"
 preserveAspectRatio="xMidYMid meet">

<g transform="translate(0.000000,512.000000) scale(0.100000,-0.100000)"
fill="#000000" stroke="none">
<path d="M1067 5109 c-40 -23 -47 -68 -47 -287 0 -130 4 -221 11 -242 16 -44
58 -60 164 -60 l85 0 0 -139 c0 -131 1 -141 23 -167 20 -22 34 -27 97 -34 82
-8 121 -24 162 -67 62 -65 74 -156 33 -240 -35 -70 -88 -106 -166 -111 -109
-8 -194 47 -220 140 -6 24 -13 49 -15 56 -2 8 -28 12 -82 12 -43 0 -81 -2 -84
-5 -10 -11 12 -110 37 -160 14 -29 43 -72 64 -97 l39 -44 -506 -252 c-439
-218 -514 -252 -561 -255 -44 -4 -59 -10 -78 -31 l-23 -27 0 -624 0 -624 24
-28 24 -28 1317 0 1317 0 24 28 24 28 0 624 0 624 -24 28 c-23 26 -30 28 -127
33 l-104 6 -430 233 c-236 128 -432 235 -435 238 -3 2 4 11 15 19 50 35 100
94 129 154 28 59 31 74 31 160 0 82 -4 103 -27 152 -50 107 -150 191 -260 218
l-48 12 0 84 0 84 85 0 c150 0 175 25 175 172 l0 79 43 -6 c45 -6 2257 -235
2273 -235 5 0 22 -24 37 -54 16 -30 48 -74 73 -99 l44 -45 0 -716 0 -716 -399
0 -398 0 -27 -26 -26 -27 0 -613 0 -614 -99 0 c-91 0 -102 -2 -128 -24 l-28
-24 0 -762 0 -762 28 -24 28 -24 965 0 966 0 29 29 29 29 0 1387 c0 1035 -3
1392 -12 1408 -23 44 -34 46 -230 47 l-188 0 0 711 0 711 52 57 c74 80 109
161 115 264 25 393 -439 604 -717 327 -62 -61 -98 -127 -115 -210 -12 -54 -12
-55 -46 -52 -52 4 -2167 221 -2220 228 l-46 6 -6 66 c-4 56 -9 70 -32 89 -26
23 -29 23 -308 23 -182 -1 -289 -4 -300 -11z m471 -286 l-3 -128 -170 0 -170
0 -3 114 c-1 63 0 121 2 128 4 10 44 13 176 13 l171 0 -3 -127z m3006 79 c47
-21 99 -70 123 -115 25 -49 29 -148 8 -203 -38 -100 -130 -164 -238 -164 -97
0 -175 45 -220 127 -118 219 99 455 327 355z m-24 -1327 l0 -675 -85 0 -85 0
0 675 0 675 85 0 85 0 0 -675z m-2778 -206 c205 -110 375 -203 377 -205 2 -2
-351 -4 -785 -3 l-789 0 405 204 c223 112 408 204 412 204 4 1 175 -89 380
-200z m818 -894 l0 -515 -1195 0 -1195 0 0 515 0 515 1195 0 1195 0 0 -515z
m1880 -300 l0 -555 -470 0 -470 0 0 555 0 555 470 0 470 0 0 -555z m510 349
l0 -206 -24 19 c-14 10 -90 72 -170 138 l-145 120 0 68 -1 67 170 0 170 0 0
-206z m-195 -268 c66 -54 124 -103 129 -107 7 -6 -253 -189 -269 -189 -3 0 -5
93 -5 206 0 161 3 204 13 198 6 -4 66 -53 132 -108z m193 -601 l-3 -104 -138
115 c-77 64 -135 120 -130 124 4 4 67 46 138 94 l130 86 3 -105 c1 -58 1 -152
0 -210z m-205 -157 c67 -55 128 -107 136 -114 11 -10 -11 -28 -123 -103 -74
-50 -138 -91 -141 -91 -3 0 -5 92 -5 205 0 113 3 205 6 205 3 0 60 -46 127
-102z m-303 -688 l0 -640 -600 0 -600 0 0 640 0 640 600 0 600 0 0 -640z m510
179 l0 -211 -52 44 c-29 24 -93 77 -141 118 -55 45 -84 77 -79 82 15 15 256
177 265 177 4 1 7 -94 7 -210z m-67 -389 c-8 -7 -237 -160 -260 -174 -10 -6
-13 38 -13 204 l0 210 140 -117 c77 -64 137 -120 133 -123z m67 -300 l0 -130
-170 0 c-226 0 -226 2 -7 149 89 60 165 110 170 110 4 1 7 -57 7 -129z"/>
<path d="M4376 4781 c-38 -25 -66 -69 -66 -104 0 -64 50 -122 110 -128 51 -5
70 2 105 36 30 31 35 42 35 84 0 100 -105 164 -184 112z m94 -86 c15 -18 10
-45 -12 -59 -33 -20 -69 20 -54 60 7 18 50 18 66 -1z"/>
<path d="M430 2475 l0 -346 83 3 82 3 0 340 0 340 -82 3 -83 3 0 -346z"/>
<path d="M855 2807 c-3 -6 -4 -161 -3 -342 l3 -330 83 -3 82 -3 0 346 0 345
-80 0 c-56 0 -82 -4 -85 -13z"/>
<path d="M1280 2475 l0 -345 85 0 85 0 0 345 0 345 -85 0 -85 0 0 -345z"/>
<path d="M1710 2475 l0 -346 83 3 82 3 0 340 0 340 -82 3 -83 3 0 -346z"/>
<path d="M2135 2807 c-3 -6 -4 -161 -3 -342 l3 -330 83 -3 82 -3 0 346 0 345
-80 0 c-56 0 -82 -4 -85 -13z"/>
<path d="M53 1355 c-17 -7 -36 -22 -42 -34 -8 -13 -11 -216 -11 -641 l0 -622
29 -29 29 -29 1307 0 1307 0 29 29 29 29 0 622 c0 426 -3 628 -11 642 -27 49
13 48 -1356 48 -1064 -1 -1283 -3 -1310 -15z m2507 -675 l0 -510 -1195 0
-1195 0 0 510 0 510 1195 0 1195 0 0 -510z"/>
<path d="M430 680 l0 -340 85 0 85 0 0 340 0 340 -85 0 -85 0 0 -340z"/>
<path d="M850 680 l0 -340 85 0 85 0 0 340 0 340 -85 0 -85 0 0 -340z"/>
<path d="M1280 680 l0 -340 85 0 85 0 0 340 0 340 -85 0 -85 0 0 -340z"/>
<path d="M1710 680 l0 -340 85 0 85 0 0 340 0 340 -85 0 -85 0 0 -340z"/>
<path d="M2130 680 l0 -340 85 0 85 0 0 340 0 340 -85 0 -85 0 0 -340z"/>
</g>
</svg>
