<?xml version="1.0" standalone="no"?>
<!DOCTYPE svg PUBLIC "-//W3C//DTD SVG 20010904//EN"
 "http://www.w3.org/TR/2001/REC-SVG-20010904/DTD/svg10.dtd">
<svg version="1.0" xmlns="http://www.w3.org/2000/svg"
 width="512.000000pt" height="512.000000pt" viewBox="0 0 512.000000 512.000000"
 preserveAspectRatio="xMidYMid meet">

<g transform="translate(0.000000,512.000000) scale(0.100000,-0.100000)"
fill="#000000" stroke="none">
<path d="M4289 4950 c-50 -9 -64 -15 -149 -65 -60 -36 -3398 -1445 -3468
-1464 -52 -14 -115 -69 -145 -125 -21 -40 -22 -53 -25 -427 l-3 -386 -70 -7
c-107 -10 -175 -53 -223 -141 -20 -39 -21 -51 -21 -380 0 -330 1 -341 22 -380
12 -22 36 -54 55 -72 59 -57 87 -63 293 -63 l185 0 0 -85 0 -84 -42 -11 c-234
-60 -398 -241 -426 -470 -33 -271 117 -513 372 -602 l81 -28 1330 0 c1475 0
1382 -4 1516 66 46 24 91 59 134 105 108 115 155 233 155 392 0 255 -177 477
-428 537 l-53 12 3 82 3 81 200 5 c219 5 231 8 292 72 61 64 63 74 63 428 l0
320 -75 188 -76 188 297 815 c163 448 301 826 306 841 7 19 22 31 56 42 25 9
47 16 49 16 2 0 3 -474 3 -1054 l0 -1054 -56 -4 c-37 -3 -61 -11 -73 -24 -10
-10 -57 -117 -105 -237 l-86 -218 46 -140 c25 -77 54 -149 65 -160 16 -16 34
-19 114 -19 l95 0 0 -87 0 -88 -44 -18 c-67 -28 -122 -80 -157 -153 -62 -125
-36 -269 66 -368 64 -63 137 -89 235 -84 90 4 149 29 209 90 55 56 84 119 89
193 5 76 -15 106 -71 108 -50 1 -75 -25 -86 -90 -15 -94 -68 -143 -156 -143
-107 0 -180 92 -154 195 16 63 60 101 138 119 40 9 69 22 75 33 6 10 13 79 16
153 l5 135 102 5 c56 3 107 10 113 16 14 14 100 272 100 301 0 13 -39 120 -86
238 -96 239 -100 245 -189 245 l-45 0 0 1229 c0 1345 4 1264 -59 1355 -65 94
-194 146 -312 126z m136 -179 c100 -57 101 -211 3 -271 -44 -26 -122 -27 -165
0 -89 54 -103 177 -28 250 53 51 123 59 190 21z m-397 -169 c6 -94 90 -218
171 -252 35 -14 37 -23 16 -74 l-15 -36 -130 0 -131 0 23 39 c22 38 22 40 6
75 -19 38 -50 53 -93 42 -16 -4 -191 -195 -512 -560 l-488 -554 -255 -3 c-241
-4 -257 -5 -297 -26 -90 -48 -110 -95 -203 -463 l-77 -305 -420 -3 -420 -2
-52 172 c-59 200 -67 219 -103 236 -47 22 -107 -15 -108 -68 0 -14 20 -92 45
-174 25 -82 45 -153 45 -158 0 -4 -83 -8 -185 -8 l-185 0 0 243 0 242 84 0
c78 0 88 2 127 30 24 17 57 50 74 73 25 37 30 55 33 115 3 62 0 79 -21 118
l-25 47 1226 518 c675 285 1367 577 1537 650 171 73 315 132 320 133 6 1 11
-20 13 -47z m112 -526 c0 -11 -63 -182 -70 -189 -6 -7 -130 170 -130 186 0 4
45 7 100 7 55 0 100 -2 100 -4z m-280 -176 l90 -135 -110 -3 c-61 -1 -159 -1
-219 0 l-108 3 121 138 c66 75 124 136 129 134 4 -1 48 -63 97 -137z m100
-312 c0 -7 -26 -84 -57 -170 -44 -120 -60 -155 -69 -145 -20 23 -249 292 -263
310 -13 16 -2 17 188 17 154 0 201 -3 201 -12z m-386 -255 l209 -245 -22 -62
c-13 -33 -30 -82 -39 -108 -9 -27 -18 -48 -21 -48 -3 0 -30 61 -60 136 -60
153 -97 208 -161 244 -42 23 -57 25 -218 30 l-173 5 131 148 c72 81 134 147
138 146 4 0 101 -111 216 -246z m-2795 -68 c70 -36 48 -145 -30 -145 -43 0
-65 15 -78 51 -13 39 2 77 39 96 32 16 35 16 69 -2z m2644 -174 c13 -16 99
-216 191 -445 l166 -416 0 -295 c0 -282 -1 -296 -20 -315 -20 -20 -33 -20
-1694 -20 -1633 0 -1674 0 -1697 19 l-24 19 0 316 c0 315 0 315 23 338 l23 23
880 5 c831 5 881 6 894 23 7 10 52 176 101 370 77 309 91 355 115 380 l27 27
495 0 495 0 25 -29z m1331 -1175 l65 -164 -25 -76 -26 -76 -183 0 -183 0 -26
78 -26 77 56 140 c31 77 60 150 65 163 8 21 14 22 113 22 l104 0 66 -164z
m-1534 -555 l0 -79 -136 -4 c-129 -3 -137 -4 -155 -27 -25 -31 -25 -85 1 -111
18 -18 33 -20 193 -20 94 0 200 -4 234 -9 134 -20 247 -101 306 -220 30 -62
32 -72 32 -176 0 -101 -2 -115 -29 -170 -38 -77 -114 -153 -191 -191 l-60 -29
-1350 0 -1350 0 -57 27 c-78 36 -152 108 -189 183 -122 248 30 536 304 576 34
5 481 9 993 9 895 0 933 1 955 19 31 25 32 83 1 114 l-23 22 -899 3 -900 2 0
73 c0 41 3 77 7 80 3 4 525 7 1160 7 l1153 0 0 -79z"/>
<path d="M2555 2951 c-12 -5 -26 -15 -32 -22 -16 -19 -143 -498 -143 -537 0
-19 8 -40 20 -52 19 -19 33 -20 219 -20 l199 0 4 -133 3 -134 93 -141 c52 -77
101 -143 109 -146 8 -3 135 -6 282 -6 342 0 311 -23 311 235 l0 188 -152 361
c-83 198 -162 372 -175 386 l-23 25 -348 2 c-191 1 -356 -2 -367 -6z m265
-311 l0 -160 -131 0 c-106 0 -130 3 -126 13 3 8 22 76 42 153 20 76 39 142 42
147 2 4 42 7 89 7 l84 0 0 -160z m503 -166 l137 -326 0 -114 0 -114 -179 0
-178 0 -62 93 -61 93 0 340 c0 188 3 344 7 347 3 4 50 7 103 7 l96 0 137 -326z"/>
<path d="M550 2147 c-44 -23 -51 -50 -48 -204 3 -132 5 -144 25 -165 31 -31
89 -30 114 1 17 20 19 42 19 176 0 131 -2 156 -17 173 -23 27 -62 35 -93 19z"/>
<path d="M870 2147 c-41 -21 -50 -52 -50 -183 0 -128 10 -178 40 -194 31 -16
79 -11 100 10 18 18 20 33 20 174 0 132 -2 157 -17 174 -23 27 -62 35 -93 19z"/>
<path d="M1190 2147 c-45 -23 -51 -50 -48 -205 3 -137 4 -145 27 -163 31 -25
85 -25 111 1 18 18 20 33 20 174 0 132 -2 157 -17 174 -23 27 -62 35 -93 19z"/>
<path d="M940 951 c-193 -39 -259 -280 -113 -412 52 -47 99 -62 179 -57 75 5
130 37 178 106 24 34 31 56 34 106 5 80 -10 127 -57 179 -55 62 -144 93 -221
78z m110 -191 c16 -31 11 -79 -10 -100 -25 -25 -80 -26 -111 -1 -44 36 -22
124 35 133 31 5 75 -11 86 -32z"/>
<path d="M1660 951 c-193 -39 -259 -280 -113 -412 52 -47 99 -62 179 -57 75 5
130 37 178 106 24 34 31 56 34 106 5 80 -10 127 -57 179 -55 62 -144 93 -221
78z m110 -191 c16 -31 11 -79 -10 -100 -40 -40 -128 -15 -131 38 -5 75 36 111
104 89 15 -5 32 -17 37 -27z"/>
<path d="M2380 951 c-194 -39 -260 -280 -113 -412 52 -47 99 -62 179 -57 75 5
130 37 178 106 24 34 31 56 34 106 5 80 -10 127 -57 179 -55 62 -144 93 -221
78z m110 -191 c16 -31 11 -79 -10 -100 -21 -21 -69 -26 -100 -10 -39 21 -45
97 -9 127 33 27 101 17 119 -17z"/>
<path d="M3100 951 c-194 -39 -260 -280 -113 -412 52 -47 99 -62 179 -57 50 3
72 10 106 34 69 48 101 103 106 178 5 80 -10 127 -57 179 -55 62 -144 93 -221
78z m110 -191 c16 -31 11 -79 -10 -100 -21 -21 -69 -26 -100 -10 -39 21 -45
97 -9 127 33 27 101 17 119 -17z"/>
</g>
</svg>
